<svg xmlns="http://www.w3.org/2000/svg" width="720" height="720" viewBox="0 0 720 720" role="img" aria-labelledby="title desc">
  <title id="title">Wingman Demo Persona Placeholder</title>
  <desc id="desc">Stylized portrait placeholder used when generated profile image is unavailable.</desc>
  <defs>
    <linearGradient id="bg" x1="0%" y1="0%" x2="100%" y2="100%">
      <stop offset="0%" stop-color="#2d1b27" />
      <stop offset="100%" stop-color="#0f0f11" />
    </linearGradient>
    <linearGradient id="accent" x1="0%" y1="0%" x2="100%" y2="100%">
      <stop offset="0%" stop-color="#fe3c72" />
      <stop offset="100%" stop-color="#ff6b6b" />
    </linearGradient>
  </defs>
  <rect width="720" height="720" fill="url(#bg)" />
  <circle cx="360" cy="260" r="132" fill="#f0d2c1" />
  <path d="M204 520c24-124 96-180 156-180s132 56 156 180" fill="#f0d2c1" />
  <path d="M228 232c18-90 85-142 132-142s114 52 132 142c-22-20-47-30-76-30-24 0-40 6-56 18-18 13-34 26-58 26-24 0-50-7-74-14z" fill="#1f1f26" />
  <circle cx="308" cy="264" r="9" fill="#241f26" />
  <circle cx="412" cy="264" r="9" fill="#241f26" />
  <path d="M321 334c12 10 26 16 39 16 14 0 28-6 39-16" fill="none" stroke="#8f5555" stroke-width="9" stroke-linecap="round" />
  <rect x="66" y="562" width="588" height="98" rx="24" fill="rgba(255,255,255,0.08)" stroke="url(#accent)" />
  <text x="360" y="616" fill="#ffffff" font-size="44" font-family="Outfit, sans-serif" font-weight="700" text-anchor="middle">Emily Prakanazech · 27</text>
</svg>
