<svg xmlns="http://www.w3.org/2000/svg" viewBox="0 0 128.84 122.99">
    <defs>
        <linearGradient id="flame-grad" x1="0%" y1="0%" x2="100%" y2="100%">
            <stop offset="0%" stop-color="#FE3C72" />
            <stop offset="100%" stop-color="#FF6B6B" />
        </linearGradient>
    </defs>
    <path fill="url(#flame-grad)" d="M12.35,121.46c-8.01-9.72-11.92-19.29-12.31-28.71C-0.78,73.01,10.92,58.28,28.3,47.67 c18.28-11.16,37.08-13.93,55.36-22.25C92.79,21.27,103.68,14.47,121.8,0c5.92,15.69-12.92,40.9-43.52,54.23 c9.48,0.37,19.69-2.54,30.85-9.74c-0.76,19.94-16.46,32.21-51.3,36.95c7.33,2.45,16.09,2.58,27.27-0.58 C74.33,116.81,29.9,91.06,12.35,121.46L12.35,121.46z" />
</svg>
